# xmcd
#
# Track frame offsets:
#   150
#   19706
#   40103
#   54257
#   73474
#   91768
#   108470
#   128311
#   147333
#   168277
#   185272
#   201654
#   219417
#   236644
#
# Disc length: 3460 seconds
#
# Revision: 0
# Processed by: cddbd v1.4PL0 Copyright (c) Steve Scherf et al.
# Submitted via: uFREEDB 1.6.0
#
DISCID=c10d820e
DTITLE=Dyamgo - Vuela conmigo
DYEAR=2002
DGENRE=Books and Spoken
TTITLE0=A donde iras
TTITLE1=Angel
TTITLE2=esa loca que yo amaba
TTITLE3=Esto es locura
TTITLE4=Gilda
TTITLE5=Lo nuestro
TTITLE6=Maria
TTITLE7=Mi almohada, mi cama
TTITLE8=Mi mujer
TTITLE9=Niña de Isidro Casanova
TTITLE10=Tu eras
TTITLE11=Vuela conmigo
TTITLE12=Yo necesito
TTITLE13=Yo no lo sabia
EXTD=
EXTT0=
EXTT1=
EXTT2=
EXTT3=
EXTT4=
EXTT5=
EXTT6=
EXTT7=
EXTT8=
EXTT9=
EXTT10=
EXTT11=
EXTT12=
EXTT13=
PLAYORDER=
